<?xml version="1.0" encoding="utf-8"?>
<!-- Generator: Adobe Illustrator 22.0.0, SVG Export Plug-In . SVG Version: 6.00 Build 0)  -->
<svg version="1.1" id="Слой_1" xmlns="http://www.w3.org/2000/svg" xmlns:xlink="http://www.w3.org/1999/xlink" x="0px" y="0px"
	 viewBox="0 0 90 90" style="enable-background:new 0 0 90 90;" xml:space="preserve">
<style type="text/css">
	.st0{fill:#FF1842;}
	.st1{fill:none;stroke:#FFFFFF;stroke-width:1.5;stroke-linecap:round;stroke-linejoin:round;}
</style>
<path class="st0" d="M33.1,70h-9.3c-2.1,0-3.8-1.7-3.8-3.8v-9.3c0-1-0.4-2-1.1-2.7l-6.6-6.6c-1.5-1.5-1.5-3.9,0-5.3l6.6-6.6
	c0.7-0.7,1-1.6,1-2.5v-9.4c0-2.1,1.7-3.8,3.8-3.8h9.3c1,0,2-0.4,2.7-1.1l6.6-6.6c1.5-1.5,3.9-1.5,5.3,0l6.6,6.6
	c0.7,0.7,1.7,1.1,2.7,1.1h9.3c2.1,0,3.8,1.7,3.8,3.8v9.3c0,1,0.4,2,1.1,2.7l6.6,6.6c1.5,1.5,1.5,3.9,0,5.3l-6.6,6.6
	c-0.7,0.7-1.1,1.7-1.1,2.7v9.3c0,2.1-1.7,3.8-3.8,3.8h-9.3c-1,0-2,0.4-2.7,1.1l-6.6,6.6c-1.5,1.5-3.9,1.5-5.3,0l-6.6-6.6
	C35.1,70.4,34.1,70,33.1,70z"/>
<path class="st1" d="M56.2,39.4L42.2,53.4L33.8,45"/>
</svg>
