<?xml version="1.0" encoding="utf-8"?>
<!-- Generator: Adobe Illustrator 22.0.0, SVG Export Plug-In . SVG Version: 6.00 Build 0)  -->
<svg version="1.1" id="Слой_1" xmlns="http://www.w3.org/2000/svg" xmlns:xlink="http://www.w3.org/1999/xlink" x="0px" y="0px"
	 viewBox="0 0 90 90" style="enable-background:new 0 0 90 90;" xml:space="preserve">
<style type="text/css">
	.st0{fill:#FF1842;}
	.st1{fill:none;stroke:#FFFFFF;stroke-width:1.5;stroke-linecap:round;stroke-linejoin:round;}
</style>
<path class="st0" d="M52.5,75h18.8c4.1,0,7.5-3.4,7.5-7.5v-45c0-4.1-3.4-7.5-7.5-7.5H18.8c-4.1,0-7.5,3.4-7.5,7.5v45
	c0,4.1,3.4,7.5,7.5,7.5h18.8l7.5,7.5L52.5,75z"/>
<path class="st1" d="M23.4,74c0-7.6,6.1-13.7,13.7-13.7h15.7c7.6,0,13.7,6.1,13.7,13.7"/>
<path class="st1" d="M54.2,30c5.1,5.1,5.1,13.3,0,18.3s-13.3,5.1-18.3,0s-5.1-13.3,0-18.3S49.1,25,54.2,30"/>
</svg>
